<?xml version="1.0" encoding="UTF-8" standalone="no"?>
<!-- Created with Inkscape (http://www.inkscape.org/) -->

<svg
   width="500"
   height="500"
   viewBox="0 0 132.29166 132.29167"
   version="1.1"
   id="svg1"
   xml:space="preserve"
   sodipodi:docname="Logo.svg"
   inkscape:version="1.3 (0e150ed6c4, 2023-07-21)"
   xmlns:inkscape="http://www.inkscape.org/namespaces/inkscape"
   xmlns:sodipodi="http://sodipodi.sourceforge.net/DTD/sodipodi-0.dtd"
   xmlns:xlink="http://www.w3.org/1999/xlink"
   xmlns="http://www.w3.org/2000/svg"
   xmlns:svg="http://www.w3.org/2000/svg"><sodipodi:namedview
     id="namedview1"
     pagecolor="#505050"
     bordercolor="#eeeeee"
     borderopacity="1"
     inkscape:showpageshadow="0"
     inkscape:pageopacity="0"
     inkscape:pagecheckerboard="0"
     inkscape:deskcolor="#505050"
     inkscape:document-units="mm"
     inkscape:zoom="0.69219276"
     inkscape:cx="361.17107"
     inkscape:cy="357.55936"
     inkscape:window-width="1920"
     inkscape:window-height="991"
     inkscape:window-x="-9"
     inkscape:window-y="-9"
     inkscape:window-maximized="1"
     inkscape:current-layer="g32" /><defs
     id="defs1"><linearGradient
       id="linearGradient16"
       inkscape:collect="always"><stop
         style="stop-color:#26bafd;stop-opacity:1;"
         offset="0"
         id="stop16" /><stop
         style="stop-color:#d524fd;stop-opacity:1;"
         offset="1"
         id="stop17" /></linearGradient><rect
       x="152.21036"
       y="173.66283"
       width="209.41694"
       height="92.960691"
       id="rect2" /><linearGradient
       inkscape:collect="always"
       xlink:href="#linearGradient16"
       id="linearGradient21"
       gradientUnits="userSpaceOnUse"
       gradientTransform="matrix(0,-0.70854919,-1.0007097,0,135.7371,15.192244)"
       x1="-68.111588"
       y1="26.217552"
       x2="-64.327606"
       y2="96.761696" /><linearGradient
       inkscape:collect="always"
       xlink:href="#linearGradient16"
       id="linearGradient30"
       gradientUnits="userSpaceOnUse"
       gradientTransform="matrix(0.53393085,0.46578944,0.6578513,-0.7540899,55.636262,142.05664)"
       x1="-68.111588"
       y1="26.217552"
       x2="-64.327606"
       y2="96.761696" /><linearGradient
       inkscape:collect="always"
       xlink:href="#linearGradient16"
       id="linearGradient31"
       gradientUnits="userSpaceOnUse"
       gradientTransform="matrix(-0.46578944,0.53393085,0.7540899,0.6578513,-15.219941,48.775303)"
       x1="-68.111588"
       y1="26.217552"
       x2="-64.327606"
       y2="96.761696" /></defs><g
     inkscape:label="Capa 1"
     inkscape:groupmode="layer"
     id="layer1"><text
       xml:space="preserve"
       transform="scale(0.26458333)"
       id="text2"
       style="font-style:normal;font-variant:normal;font-weight:normal;font-stretch:normal;font-size:85.3333px;line-height:0px;font-family:Tahoma;-inkscape-font-specification:'Tahoma, Normal';font-variant-ligatures:normal;font-variant-caps:normal;font-variant-numeric:normal;font-variant-east-asian:normal;letter-spacing:1.3px;word-spacing:0px;white-space:pre;shape-inside:url(#rect2);display:inline;fill:none;stroke:#000000;stroke-width:2.26772;stroke-linecap:round;stroke-linejoin:round;paint-order:markers fill stroke" /><g
       id="g32"
       transform="translate(0.61850953,1.8106836)"><g
         id="g33"
         transform="translate(-0.38223967,4.3472833)"><circle
           style="fill:#8767fd;fill-opacity:1;fill-rule:evenodd;stroke:none;stroke-width:0.645343;stroke-linecap:round;stroke-linejoin:round;paint-order:markers fill stroke"
           id="path25"
           cx="66.511864"
           cy="60.224388"
           r="22" /><path
           d="m 67.338261,31.830238 a 59.774051,28.15184 0 0 0 -7.802108,0.240812 59.774051,28.15184 0 0 0 -7.668265,0.718819 59.774051,28.15184 0 0 0 -7.4042,1.18339 59.774051,28.15184 0 0 0 -7.012491,1.628841 59.774051,28.15184 0 0 0 -6.500896,2.04587 59.774051,28.15184 0 0 0 -5.87871,2.427759 59.774051,28.15184 0 0 0 -5.155241,2.768823 59.774051,28.15184 0 0 0 -4.343921,3.061829 59.774051,28.15184 0 0 0 -3.458187,3.302641 59.774051,28.15184 0 0 0 -2.513025,3.486609 59.774051,28.15184 0 0 0 -1.2009603,2.843237 8.5139475,8.2436638 0 0 1 0.027388,-0.01344 8.5139475,8.2436638 0 0 1 2.6308463,-0.403593 8.5139475,8.2436638 0 0 1 0.953431,0.05219 8.5139475,8.2436638 0 0 1 0.541569,0.08888 55.060895,26.251025 0 0 1 0.05943,-0.430465 55.060895,26.251025 0 0 1 1.405083,-3.367753 55.060895,26.251025 0 0 1 2.315104,-3.251481 55.060895,26.251025 0 0 1 3.185335,-3.079915 55.060895,26.251025 0 0 1 4.001823,-2.855123 55.060895,26.251025 0 0 1 4.748547,-2.581238 55.060895,26.251025 0 0 1 5.415174,-2.264461 55.060895,26.251025 0 0 1 5.988265,-1.907377 55.060895,26.251025 0 0 1 6.459554,-1.518771 55.060895,26.251025 0 0 1 6.820255,-1.103808 55.060895,26.251025 0 0 1 7.064169,-0.669727 55.060895,26.251025 0 0 1 7.186641,-0.224792 55.060895,26.251025 0 0 1 7.186641,0.224792 55.060895,26.251025 0 0 1 7.064169,0.669727 55.060895,26.251025 0 0 1 6.820255,1.103808 55.060895,26.251025 0 0 1 6.459554,1.518771 55.060895,26.251025 0 0 1 5.98827,1.907377 55.060895,26.251025 0 0 1 5.41517,2.264461 55.060895,26.251025 0 0 1 4.74855,2.581238 55.060895,26.251025 0 0 1 4.00182,2.855123 55.060895,26.251025 0 0 1 3.18534,3.079915 55.060895,26.251025 0 0 1 2.3151,3.251481 55.060895,26.251025 0 0 1 1.40508,3.367753 55.060895,26.251025 0 0 1 0.47129,3.426664 55.060895,26.251025 0 0 1 -0.47129,3.426148 55.060895,26.251025 0 0 1 -1.40508,3.367753 55.060895,26.251025 0 0 1 -2.3151,3.251998 55.060895,26.251025 0 0 1 -3.18534,3.079398 55.060895,26.251025 0 0 1 -4.00182,2.855123 55.060895,26.251025 0 0 1 -4.74855,2.581755 55.060895,26.251025 0 0 1 -5.41517,2.263944 55.060895,26.251025 0 0 1 -5.98827,1.907894 55.060895,26.251025 0 0 1 -6.459554,1.518771 55.060895,26.251025 0 0 1 -6.820255,1.103808 55.060895,26.251025 0 0 1 -7.064169,0.669727 55.060895,26.251025 0 0 1 -7.186641,0.224276 55.060895,26.251025 0 0 1 -7.186641,-0.224276 55.060895,26.251025 0 0 1 -7.064169,-0.669727 55.060895,26.251025 0 0 1 -6.820255,-1.103808 55.060895,26.251025 0 0 1 -6.459554,-1.518771 55.060895,26.251025 0 0 1 -5.988265,-1.907894 55.060895,26.251025 0 0 1 -5.415174,-2.263944 55.060895,26.251025 0 0 1 -4.748547,-2.581755 55.060895,26.251025 0 0 1 -4.001823,-2.855123 55.060895,26.251025 0 0 1 -2.426725,-2.34611 8.5139475,8.2436638 0 0 1 -1.028878,0.996839 8.5139475,8.2436638 0 0 1 -2.373498,1.170988 8.5139475,8.2436638 0 0 1 -0.950847,0.145727 59.774051,28.15184 0 0 0 2.833936,2.706295 59.774051,28.15184 0 0 0 4.343921,3.061829 59.774051,28.15184 0 0 0 5.155241,2.768823 59.774051,28.15184 0 0 0 5.878194,2.427759 59.774051,28.15184 0 0 0 6.501412,2.04587 59.774051,28.15184 0 0 0 7.012491,1.628841 59.774051,28.15184 0 0 0 7.403683,1.18339 59.774051,28.15184 0 0 0 7.668782,0.718819 59.774051,28.15184 0 0 0 7.802108,0.240812 59.774051,28.15184 0 0 0 2.682007,-0.02842 59.774051,28.15184 0 0 0 2.676323,-0.08527 59.774051,28.15184 0 0 0 2.66547,-0.141076 59.774051,28.15184 0 0 0 2.649451,-0.197921 59.774051,28.15184 0 0 0 2.627746,-0.253215 59.774051,28.15184 0 0 0 2.601392,-0.309025 59.774051,28.15184 0 0 0 2.568835,-0.363285 59.774051,28.15184 0 0 0 2.532145,-0.417029 59.774051,28.15184 0 0 0 2.489771,-0.470255 59.774051,28.15184 0 0 0 2.442228,-0.522449 59.774051,28.15184 0 0 0 2.390035,-0.573608 59.774051,28.15184 0 0 0 2.332674,-0.623735 59.774051,28.15184 0 0 0 2.2717,-0.671794 59.774051,28.15184 0 0 0 2.20503,-0.719852 59.774051,28.15184 0 0 0 2.13424,-0.765328 59.774051,28.15184 0 0 0 2.05879,-0.809253 59.774051,28.15184 0 0 0 1.98024,-0.852661 59.774051,28.15184 0 0 0 1.89652,-0.892969 59.774051,28.15184 0 0 0 1.80971,-0.93276 59.774051,28.15184 0 0 0 1.71928,-0.969966 59.774051,28.15184 0 0 0 1.6247,-1.005107 59.774051,28.15184 0 0 0 1.52808,-1.038179 59.774051,28.15184 0 0 0 1.42678,-1.069703 59.774051,28.15184 0 0 0 1.32395,-1.099157 59.774051,28.15184 0 0 0 1.2175,-1.125513 59.774051,28.15184 0 0 0 1.10949,-1.150317 59.774051,28.15184 0 0 0 0.99891,-1.172539 59.774051,28.15184 0 0 0 0.88573,-1.192175 59.774051,28.15184 0 0 0 0.77153,-1.210262 59.774051,28.15184 0 0 0 0.65526,-1.224731 59.774051,28.15184 0 0 0 0.53795,-1.238168 59.774051,28.15184 0 0 0 0.41961,-1.247469 59.774051,28.15184 0 0 0 0.30076,-1.255737 59.774051,28.15184 0 0 0 0.18035,-1.260388 59.774051,28.15184 0 0 0 0.0599,-1.262972 59.774051,28.15184 0 0 0 -0.51108,-3.674711 59.774051,28.15184 0 0 0 -1.52549,-3.611666 59.774051,28.15184 0 0 0 -2.51354,-3.486609 59.774051,28.15184 0 0 0 -3.45819,-3.302641 59.774051,28.15184 0 0 0 -4.34392,-3.061829 59.774051,28.15184 0 0 0 -5.15524,-2.768823 59.774051,28.15184 0 0 0 -5.87871,-2.427759 59.774051,28.15184 0 0 0 -6.500902,-2.04587 59.774051,28.15184 0 0 0 -7.012492,-1.628841 59.774051,28.15184 0 0 0 -7.403682,-1.18339 59.774051,28.15184 0 0 0 -7.668783,-0.718819 59.774051,28.15184 0 0 0 -7.802108,-0.240812 z"
           style="fill:url(#linearGradient21);fill-rule:evenodd;stroke:none;stroke-width:0.451902;stroke-linecap:round;stroke-linejoin:round;paint-order:markers fill stroke"
           id="path26" /><circle
           style="fill:#8767fd;fill-opacity:1;fill-rule:evenodd;stroke:none;stroke-width:0.501331;stroke-linecap:round;stroke-linejoin:round;paint-order:markers fill stroke"
           id="ellipse30"
           cx="11.706777"
           cy="62.932888"
           r="7" /><path
           d="m 88.062967,79.576784 a 28.15184,59.774051 41.100723 0 0 4.947522,-6.037624 28.15184,59.774051 41.100723 0 0 4.499331,-6.251001 28.15184,59.774051 41.100723 0 0 3.97566,-6.357415 28.15184,59.774051 41.100723 0 0 3.38248,-6.355074 28.15184,59.774051 41.100723 0 0 2.73192,-6.243707 28.15184,59.774051 41.100723 0 0 2.03512,-6.025903 28.15184,59.774051 41.100723 0 0 1.30252,-5.70494 28.15184,59.774051 41.100723 0 0 0.54837,-5.286183 28.15184,59.774051 41.100723 0 0 -0.21536,-4.777042 28.15184,59.774051 41.100723 0 0 -0.97534,-4.185746 28.15184,59.774051 41.100723 0 0 -1.35304,-2.77409 8.2436638,8.5139475 41.100723 0 1 -0.008,0.0295 8.2436638,8.5139475 41.100723 0 1 -1.42535,2.24781 8.2436638,8.5139475 41.100723 0 1 -0.6661,0.68415 8.2436638,8.5139475 41.100723 0 1 -0.42299,0.34968 26.251025,55.060895 41.100723 0 1 0.28533,0.32774 26.251025,55.060895 41.100723 0 1 1.61411,3.272714 26.251025,55.060895 41.100723 0 1 0.92825,3.882037 26.251025,55.060895 41.100723 0 1 0.2269,4.42501 26.251025,55.060895 41.100723 0 1 -0.47925,4.892514 26.251025,55.060895 41.100723 0 1 -1.17652,5.275155 26.251025,55.060895 41.100723 0 1 -1.85345,5.569254 26.251025,55.060895 41.100723 0 1 -2.49928,5.766368 26.251025,55.060895 41.100723 0 1 -3.10194,5.866047 26.251025,55.060895 41.100723 0 1 -3.651751,5.865064 26.251025,55.060895 41.100723 0 1 -4.139201,5.763509 26.251025,55.060895 41.100723 0 1 -4.554995,5.563305 26.251025,55.060895 41.100723 0 1 -4.893781,5.267755 26.251025,55.060895 41.100723 0 1 -5.148553,4.882972 26.251025,55.060895 41.100723 0 1 -5.315312,4.413807 26.251025,55.060895 41.100723 0 1 -5.39089,3.86922 26.251025,55.060895 41.100723 0 1 -5.373909,3.25861 26.251025,55.060895 41.100723 0 1 -5.266247,2.592 26.251025,55.060895 41.100723 0 1 -5.066729,1.88143 26.251025,55.060895 41.100723 0 1 -4.782228,1.13868 26.251025,55.060895 41.100723 0 1 -4.41488,0.37564 26.251025,55.060895 41.100723 0 1 -3.972081,-0.39292 26.251025,55.060895 41.100723 0 1 -3.461468,-1.15511 26.251025,55.060895 41.100723 0 1 -2.892002,-1.89749 26.251025,55.060895 41.100723 0 1 -2.27197,-2.60744 26.251025,55.060895 41.100723 0 1 -1.61411,-3.27271 26.251025,55.060895 41.100723 0 1 -0.92865,-3.88237 26.251025,55.060895 41.100723 0 1 -0.2265,-4.424682 26.251025,55.060895 41.100723 0 1 0.47924,-4.892506 26.251025,55.060895 41.100723 0 1 1.17613,-5.2755 26.251025,55.060895 41.100723 0 1 1.85385,-5.568911 26.251025,55.060895 41.100723 0 1 2.49889,-5.76671 26.251025,55.060895 41.100723 0 1 3.101937,-5.866047 26.251025,55.060895 41.100723 0 1 3.651751,-5.865064 26.251025,55.060895 41.100723 0 1 4.139201,-5.763509 26.251025,55.060895 41.100723 0 1 4.555384,-5.562966 26.251025,55.060895 41.100723 0 1 4.893392,-5.268094 26.251025,55.060895 41.100723 0 1 5.148554,-4.882972 26.251025,55.060895 41.100723 0 1 5.315311,-4.413812 26.251025,55.060895 41.100723 0 1 5.39089,-3.869208 26.251025,55.060895 41.100723 0 1 5.374298,-3.25827 26.251025,55.060895 41.100723 0 1 5.265859,-2.59235 26.251025,55.060895 41.100723 0 1 5.067114,-1.88109 26.251025,55.060895 41.100723 0 1 4.782234,-1.13868 26.251025,55.060895 41.100723 0 1 3.363212,-0.28637 8.2436638,8.5139475 41.100723 0 1 -0.0748,-1.43063 8.2436638,8.5139475 41.100723 0 1 0.677899,-2.55835 8.2436638,8.5139475 41.100723 0 1 0.515261,-0.81232 28.15184,59.774051 41.100723 0 0 -3.902331,0.35646 28.15184,59.774051 41.100723 0 0 -5.162884,1.26058 28.15184,59.774051 41.100723 0 0 -5.475437,2.06458 28.15184,59.774051 41.100723 0 0 -5.693687,2.83357 28.15184,59.774051 41.100723 0 0 -5.815604,3.55425 28.15184,59.774051 41.100723 0 0 -5.837327,4.213524 28.15184,59.774051 41.100723 0 0 -5.758817,4.80114 28.15184,59.774051 41.100723 0 0 -5.583011,5.306309 28.15184,59.774051 41.100723 0 0 -5.310452,5.721012 28.15184,59.774051 41.100723 0 0 -1.741694,2.039723 28.15184,59.774051 41.100723 0 0 -1.695118,2.072812 28.15184,59.774051 41.100723 0 0 -1.645931,2.10132 28.15184,59.774051 41.100723 0 0 -1.592564,2.126618 28.15184,59.774051 41.100723 0 0 -1.536629,2.146611 28.15184,59.774051 41.100723 0 0 -1.477248,2.16344 28.15184,59.774051 41.100723 0 0 -1.414958,2.174577 28.15184,59.774051 41.100723 0 0 -1.350345,2.182259 28.15184,59.774051 41.100723 0 0 -1.28237,2.185318 28.15184,59.774051 41.100723 0 0 -1.21179,2.183804 28.15184,59.774051 41.100723 0 0 -1.13893,2.178104 28.15184,59.774051 41.100723 0 0 -1.06345,2.167832 28.15184,59.774051 41.100723 0 0 -0.98714,2.153476 28.15184,59.774051 41.100723 0 0 -0.90711,2.134832 28.15184,59.774051 41.100723 0 0 -0.8263,2.111382 28.15184,59.774051 41.100723 0 0 -0.7436,2.083402 28.15184,59.774051 41.100723 0 0 -0.65925,2.052747 28.15184,59.774051 41.100723 0 0 -0.57384,2.016156 28.15184,59.774051 41.100723 0 0 -0.48679,1.976898 28.15184,59.774051 41.100723 0 0 -0.39931,1.933214 28.15184,59.774051 41.100723 0 0 -0.31065,1.885043 28.15184,59.774051 41.100723 0 0 -0.22221,1.833975 28.15184,59.774051 41.100723 0 0 -0.13186,1.778364 28.15184,59.774051 41.100723 0 0 -0.0421,1.720238 28.15184,59.774051 41.100723 0 0 0.0478,1.657351 28.15184,59.774051 41.100723 0 0 0.13747,1.59226 28.15184,59.774051 41.100723 0 0 0.2269,1.52354 28.15184,59.774051 41.100723 0 0 0.3161,1.45117 28.15184,59.774051 41.100723 0 0 0.40481,1.377 28.15184,59.774051 41.100723 0 0 0.49215,1.29889 28.15184,59.774051 41.100723 0 0 0.57938,1.21933 28.15184,59.774051 41.100723 0 0 0.66419,1.13626 28.15184,59.774051 41.100723 0 0 0.74856,1.05214 28.15184,59.774051 41.100723 0 0 0.83121,0.96447 28.15184,59.774051 41.100723 0 0 0.91234,0.87539 28.15184,59.774051 41.100723 0 0 3.10507,2.03058 28.15184,59.774051 41.100723 0 0 3.724435,1.22471 28.15184,59.774051 41.100723 0 0 4.279712,0.39795 28.15184,59.774051 41.100723 0 0 4.762084,-0.43483 28.15184,59.774051 41.100723 0 0 5.162883,-1.26058 28.15184,59.774051 41.100723 0 0 5.475437,-2.06458 28.15184,59.774051 41.100723 0 0 5.694025,-2.83396 28.15184,59.774051 41.100723 0 0 5.815267,-3.55386 28.15184,59.774051 41.100723 0 0 5.837327,-4.21352 28.15184,59.774051 41.100723 0 0 5.758817,-4.801142 28.15184,59.774051 41.100723 0 0 5.583011,-5.30631 28.15184,59.774051 41.100723 0 0 5.310452,-5.721012 z"
           style="fill:url(#linearGradient30);fill-rule:evenodd;stroke:none;stroke-width:0.451902;stroke-linecap:round;stroke-linejoin:round;paint-order:markers fill stroke"
           id="path30" /><circle
           style="fill:#8767fd;fill-opacity:1;fill-rule:evenodd;stroke:none;stroke-width:0.501331;stroke-linecap:round;stroke-linejoin:round;paint-order:markers fill stroke"
           id="circle30"
           cx="-53.557262"
           cy="-87.570206"
           r="7"
           transform="rotate(131.10072)" /><path
           d="m 47.259911,81.202008 a 59.774051,28.15184 41.100723 0 0 6.037624,4.947522 59.774051,28.15184 41.100723 0 0 6.251001,4.499331 59.774051,28.15184 41.100723 0 0 6.357415,3.975658 59.774051,28.15184 41.100723 0 0 6.355074,3.382484 59.774051,28.15184 41.100723 0 0 6.243707,2.731917 59.774051,28.15184 41.100723 0 0 6.025903,2.03512 59.774051,28.15184 41.100723 0 0 5.70494,1.30252 59.774051,28.15184 41.100723 0 0 5.286183,0.54837 59.774051,28.15184 41.100723 0 0 4.777042,-0.21536 59.774051,28.15184 41.100723 0 0 4.18575,-0.97533 59.774051,28.15184 41.100723 0 0 2.77409,-1.35305 8.5139475,8.2436638 41.100723 0 1 -0.0295,-0.008 8.5139475,8.2436638 41.100723 0 1 -2.24781,-1.42535 8.5139475,8.2436638 41.100723 0 1 -0.68415,-0.666097 8.5139475,8.2436638 41.100723 0 1 -0.34967,-0.422996 55.060895,26.251025 41.100723 0 1 -0.32775,0.285331 55.060895,26.251025 41.100723 0 1 -3.27272,1.614112 55.060895,26.251025 41.100723 0 1 -3.882035,0.92825 55.060895,26.251025 41.100723 0 1 -4.42501,0.2269 55.060895,26.251025 41.100723 0 1 -4.892514,-0.47925 55.060895,26.251025 41.100723 0 1 -5.275155,-1.17652 55.060895,26.251025 41.100723 0 1 -5.569254,-1.853453 55.060895,26.251025 41.100723 0 1 -5.766368,-2.499281 55.060895,26.251025 41.100723 0 1 -5.866047,-3.101934 55.060895,26.251025 41.100723 0 1 -5.865064,-3.651752 55.060895,26.251025 41.100723 0 1 -5.763509,-4.139201 55.060895,26.251025 41.100723 0 1 -5.563305,-4.554995 55.060895,26.251025 41.100723 0 1 -5.267755,-4.893781 55.060895,26.251025 41.100723 0 1 -4.882972,-5.148553 55.060895,26.251025 41.100723 0 1 -4.413813,-5.315312 55.060895,26.251025 41.100723 0 1 -3.86921,-5.39089 55.060895,26.251025 41.100723 0 1 -3.25861,-5.373909 55.060895,26.251025 41.100723 0 1 -2.592,-5.266247 55.060895,26.251025 41.100723 0 1 -1.88143,-5.066729 55.060895,26.251025 41.100723 0 1 -1.13868,-4.782228 55.060895,26.251025 41.100723 0 1 -0.37564,-4.41488 55.060895,26.251025 41.100723 0 1 0.39292,-3.972081 55.060895,26.251025 41.100723 0 1 1.1551,-3.461468 55.060895,26.251025 41.100723 0 1 1.8975,-2.892 55.060895,26.251025 41.100723 0 1 2.60744,-2.27197 55.060895,26.251025 41.100723 0 1 3.27271,-1.61411 55.060895,26.251025 41.100723 0 1 3.88237,-0.92865 55.060895,26.251025 41.100723 0 1 4.424678,-0.2265 55.060895,26.251025 41.100723 0 1 4.892506,0.47924 55.060895,26.251025 41.100723 0 1 5.2755,1.17613 55.060895,26.251025 41.100723 0 1 5.568911,1.85385 55.060895,26.251025 41.100723 0 1 5.76671,2.49889 55.060895,26.251025 41.100723 0 1 5.866047,3.101935 55.060895,26.251025 41.100723 0 1 5.865064,3.651751 55.060895,26.251025 41.100723 0 1 5.763509,4.139201 55.060895,26.251025 41.100723 0 1 5.562966,4.555384 55.060895,26.251025 41.100723 0 1 5.268094,4.893392 55.060895,26.251025 41.100723 0 1 4.882972,5.148554 55.060895,26.251025 41.100723 0 1 4.413812,5.315311 55.060895,26.251025 41.100723 0 1 3.869222,5.39089 55.060895,26.251025 41.100723 0 1 3.25826,5.374298 55.060895,26.251025 41.100723 0 1 2.59235,5.265859 55.060895,26.251025 41.100723 0 1 1.88109,5.067114 55.060895,26.251025 41.100723 0 1 1.13868,4.782234 55.060895,26.251025 41.100723 0 1 0.28637,3.363212 8.5139475,8.2436638 41.100723 0 1 1.43063,-0.0748 8.5139475,8.2436638 41.100723 0 1 2.55835,0.677899 8.5139475,8.2436638 41.100723 0 1 0.81232,0.515261 59.774051,28.15184 41.100723 0 0 -0.35646,-3.902331 59.774051,28.15184 41.100723 0 0 -1.26058,-5.162884 59.774051,28.15184 41.100723 0 0 -2.06458,-5.475437 59.774051,28.15184 41.100723 0 0 -2.83357,-5.693687 59.774051,28.15184 41.100723 0 0 -3.55425,-5.815604 59.774051,28.15184 41.100723 0 0 -4.21353,-5.837327 59.774051,28.15184 41.100723 0 0 -4.801138,-5.758817 59.774051,28.15184 41.100723 0 0 -5.306309,-5.583011 59.774051,28.15184 41.100723 0 0 -5.721012,-5.310452 59.774051,28.15184 41.100723 0 0 -2.039723,-1.741694 59.774051,28.15184 41.100723 0 0 -2.072812,-1.695118 59.774051,28.15184 41.100723 0 0 -2.10132,-1.645931 59.774051,28.15184 41.100723 0 0 -2.126618,-1.592564 59.774051,28.15184 41.100723 0 0 -2.146611,-1.536629 59.774051,28.15184 41.100723 0 0 -2.16344,-1.477248 59.774051,28.15184 41.100723 0 0 -2.174577,-1.414958 59.774051,28.15184 41.100723 0 0 -2.182259,-1.35034 59.774051,28.15184 41.100723 0 0 -2.185318,-1.28237 59.774051,28.15184 41.100723 0 0 -2.183804,-1.21179 59.774051,28.15184 41.100723 0 0 -2.178104,-1.13893 59.774051,28.15184 41.100723 0 0 -2.167832,-1.06345 59.774051,28.15184 41.100723 0 0 -2.153476,-0.98714 59.774051,28.15184 41.100723 0 0 -2.134832,-0.90711 59.774051,28.15184 41.100723 0 0 -2.111382,-0.826298 59.774051,28.15184 41.100723 0 0 -2.083402,-0.7436 59.774051,28.15184 41.100723 0 0 -2.052747,-0.65925 59.774051,28.15184 41.100723 0 0 -2.016156,-0.57384 59.774051,28.15184 41.100723 0 0 -1.976898,-0.48679 59.774051,28.15184 41.100723 0 0 -1.933214,-0.39931 59.774051,28.15184 41.100723 0 0 -1.885043,-0.31065 59.774051,28.15184 41.100723 0 0 -1.833975,-0.22221 59.774051,28.15184 41.100723 0 0 -1.778364,-0.13186 59.774051,28.15184 41.100723 0 0 -1.720237,-0.0421 59.774051,28.15184 41.100723 0 0 -1.657348,0.0478 59.774051,28.15184 41.100723 0 0 -1.59226,0.13747 59.774051,28.15184 41.100723 0 0 -1.52355,0.2269 59.774051,28.15184 41.100723 0 0 -1.45116,0.3161 59.774051,28.15184 41.100723 0 0 -1.377,0.40481 59.774051,28.15184 41.100723 0 0 -1.29889,0.49215 59.774051,28.15184 41.100723 0 0 -1.21933,0.57938 59.774051,28.15184 41.100723 0 0 -1.13627,0.66419 59.774051,28.15184 41.100723 0 0 -1.05214,0.74856 59.774051,28.15184 41.100723 0 0 -0.96446,0.831208 59.774051,28.15184 41.100723 0 0 -0.8754,0.91234 59.774051,28.15184 41.100723 0 0 -2.03057,3.10507 59.774051,28.15184 41.100723 0 0 -1.22471,3.72443 59.774051,28.15184 41.100723 0 0 -0.39796,4.279712 59.774051,28.15184 41.100723 0 0 0.43484,4.762084 59.774051,28.15184 41.100723 0 0 1.26058,5.162883 59.774051,28.15184 41.100723 0 0 2.06457,5.475437 59.774051,28.15184 41.100723 0 0 2.83396,5.694025 59.774051,28.15184 41.100723 0 0 3.55387,5.815267 59.774051,28.15184 41.100723 0 0 4.21352,5.837327 59.774051,28.15184 41.100723 0 0 4.801138,5.758817 59.774051,28.15184 41.100723 0 0 5.30631,5.583011 59.774051,28.15184 41.100723 0 0 5.721012,5.310452 z"
           style="fill:url(#linearGradient31);fill-rule:evenodd;stroke:none;stroke-width:0.451902;stroke-linecap:round;stroke-linejoin:round;paint-order:markers fill stroke"
           id="path31" /><circle
           style="fill:#8767fd;fill-opacity:1;fill-rule:evenodd;stroke:none;stroke-width:0.501331;stroke-linecap:round;stroke-linejoin:round;paint-order:markers fill stroke"
           id="circle31"
           cx="-144.62541"
           cy="0.98041016"
           r="7"
           transform="rotate(-138.89928)" /></g></g></g></svg>
